# xmcd
#
# Track frame offsets:
#	150
#	20958
#	39340
#	52067
#	73691
#	92747
#	104937
#	120389
#	136358
#	151717
#	173599
#	189671
#	206878
#	227621
#	246277
#	267638
#	283925
#	302166
#	317834
#	333868
#
# Disc length: 4700 seconds
#
# Revision: 1
# Processed by: cddbd v1.5.2PL0 Copyright (c) Steve Scherf et al.
# Submitted via: audiograbber 1.83.01
#
DISCID=30125a14
DTITLE=Various Artist - The World's Best Ever Beer Songs 10th Anniversary CD1
DYEAR=1900
DGENRE=Pub Anthems
TTITLE0=Lynyrd Skynyrd - Sweet Home Alabama
TTITLE1=Choirboys - Run To Paradise
TTITLE2=Divinyls - Boys In Town
TTITLE3=George Thorogood and the Destroyers - Bad To The Bone
TTITLE4=Robert Palmer - Addicted To Love
TTITLE5=Kiss - Rock And Roll All Night
TTITLE6=Steppenwolf - Born To Be Wild
TTITLE7=Bachman-Turner Overdrive - You Ain't Seen Nothing Yet
TTITLE8=Dragon - April Sun In Cuba
TTITLE9=The Knack - My Sharona
TTITLE10=Jet - Are You Gonna Be My Girl
TTITLE11=Survivor - Eye Of The Tiger
TTITLE12=The Screaming Jets - Better
TTITLE13=Pat Benatar - All Fired Up
TTITLE14=Billy Idol - Rebel Yell
TTITLE15=Billy Squier - The Stroke
TTITLE16=Dexy's Midnight Runners - Come On Eileen
TTITLE17=Chumbawamba - Tubthumping
TTITLE18=The Proclaimers - I'm Gonna Be (500 Miles)
TTITLE19=Cold Chisel - Khe Sanh
EXTD=
EXTT0=
EXTT1=
EXTT2=
EXTT3=
EXTT4=
EXTT5=
EXTT6=
EXTT7=
EXTT8=
EXTT9=
EXTT10=
EXTT11=
EXTT12=
EXTT13=
EXTT14=
EXTT15=
EXTT16=
EXTT17=
EXTT18=
EXTT19=
PLAYORDER=
